<svg xmlns="http://www.w3.org/2000/svg" viewBox="0 0 500 500"><defs><style>.cls-1{fill:#231f20;}</style></defs><g id="Layer_2" data-name="Layer 2"><g id="Layer_1-2" data-name="Layer 1"><path class="cls-1" d="M250,500C112.15,500,0,387.85,0,250S112.15,0,250,0,500,112.15,500,250,387.85,500,250,500Zm0-455.94C136.45,44.06,44.06,136.44,44.06,250S136.45,455.94,250,455.94,455.94,363.56,455.94,250,363.55,44.06,250,44.06Z"/><path class="cls-1" d="M244.82,292.58a22,22,0,0,1-22-22V113.29a22,22,0,0,1,44.06,0v116L310.67,200a22,22,0,0,1,24.51,36.62l-78.11,52.27A22,22,0,0,1,244.82,292.58Z"/></g></g></svg>