<svg xmlns="http://www.w3.org/2000/svg" viewBox="0 0 500 500"><defs><style>.cls-1{fill:#231f20;}.cls-2{fill:none;}</style></defs><g id="Layer_2" data-name="Layer 2"><g id="Layer_1-2" data-name="Layer 1"><path class="cls-1" d="M431.41,8.88c-10.11-7.51-40.86-30.34-185.2,51C180.69,96.84,102,151.12,73.74,189.14c-50.57,68.13-35.91,166.25,31,227.06L67,464.85c-.2.27-.45.6-.64.88a21.79,21.79,0,1,0,35.74,24.95l35.21-50.45a186.9,186.9,0,0,0,94.95,26.4q8.67,0,17.35-.85c46.27-4.52,86.34-26.67,112.83-62.36C390.16,366.05,418.9,274.31,435.08,200,470.37,37.8,441,16,431.41,8.88ZM390.63,199.14c-17.87,78.94-43.86,152.26-63.19,178.31-19.06,25.68-48.21,41.65-82.08,45-28.41,2.78-57.28-3.59-83-18l180-257.84a11.3,11.3,0,0,0-18.2-13.4L131.51,381.62c-48.39-46-59.28-117.33-22.78-166.51,19.61-26.42,83.82-74.25,152.69-113.72,91-52.16,129.24-57.34,140.79-57.34a27.06,27.06,0,0,1,2.79.12C409.88,55.44,412.17,104,390.63,199.14Z"/><rect class="cls-2" width="500" height="500"/></g></g></svg>