<svg xmlns="http://www.w3.org/2000/svg" viewBox="0 0 629.45 550.06"><defs><style>.cls-1{fill:#005f54;}.cls-2{fill:#fff;}.cls-3{fill:#fbab33;}.cls-4{fill:#fff200;}.cls-5{fill:#231f20;}</style></defs><g id="Layer_2" data-name="Layer 2"><g id="Layer_1-2" data-name="Layer 1"><circle class="cls-1" cx="290.39" cy="413.89" r="131.44"/><circle class="cls-1" cx="437.36" cy="452.74" r="97.32"/><circle class="cls-1" cx="371.31" cy="131.44" r="131.44"/><circle class="cls-1" cx="231.97" cy="121.86" r="37.34"/><circle class="cls-1" cx="225.29" cy="230.16" r="98.72"/><circle class="cls-1" cx="498.61" cy="243.7" r="98.72"/><path class="cls-2" d="M364.5,401.93S416,531.39,527.36,457.29,629.25,265.68,629.25,265.68s-40.13-67-85.24-45.82-104-16.78-104-16.78-27.21-11.39-48.1-3.16c-11.84,4.66-29.16-3.69-42-11.8a67.16,67.16,0,0,0-37.39-10.24c-13.95.29-30.47-2.57-40-12.14C245.51,138.49,215.85,151,215.85,151L229.9,174.6l3.16,57Z"/><circle class="cls-1" cx="76.08" cy="271.96" r="76.08"/><path class="cls-3" d="M539.39,372.08c.2,4.4-3.18,7.95-6,11.14-7.65,8.73-17.64,15.55-28.3,20.7C486.26,413,465,417.05,443.94,418.29a200.92,200.92,0,0,1-39.24-1.2,138.34,138.34,0,0,1-14.06-2.62l-2-.5-.08,0c-.67-.17-1.32-.34-2-.52l-.19-.05h0c-12.51-3.49-21.36-8.19-27.41-12.45-8.28-5.83-11.32-10.84-11.32-10.84s27.19-88.55,63-49.83l.09.09a76.93,76.93,0,0,0,7.83,7.37h0c.61.51,1.23,1,1.86,1.48s1.46,1.11,2.21,1.64c1.4,1,2.82,1.95,4.27,2.87a99.19,99.19,0,0,0,71.73,13.64c9.67-1.85,21.34-8.83,31.2-5.46C534.51,363.46,539.16,367.15,539.39,372.08Z"/><path class="cls-4" d="M270.82,230.16c-.31-.81-.63-1.63-.92-2.47C269.9,227,270.36,227.84,270.82,230.16Z"/><path class="cls-2" d="M369,309.23S339.82,343,316.59,355.78c-6.89,3.82-13.25,5.79-18.18,4.5h0c-5-1.32-10.49-4.5-15.86-8.61a117.6,117.6,0,0,1-9-7.69c-3.36-3.16-6.58-6.48-9.52-9.71-3.67-4-6.91-7.86-9.49-11-3.86-4.77-6.21-8-6.21-8a199.45,199.45,0,0,0,9.6-18.1q.32-.64.6-1.29C274,262,272.36,238,270.81,230.16a78.55,78.55,0,0,0,6.79,13.54c.57.92,1.16,1.81,1.76,2.69a77,77,0,0,0,8.1,9.91,82.27,82.27,0,0,0,10.8,9.38,92.35,92.35,0,0,0,9.91,6.28,105.12,105.12,0,0,0,10.54,5l1.41.56a121.32,121.32,0,0,0,16.08,5.1h0c2.94.72,5.76,1.3,8.42,1.77a125.25,125.25,0,0,0,19.79,2.05H365a16.13,16.13,0,0,1,1.77.19h0a5.12,5.12,0,0,1,3.39,2.87h0C373.28,295.78,369,309.23,369,309.23Z"/><path class="cls-3" d="M217.1,291l-.95.08c-3.73.34-7.29.63-10.7.9l-.64.05-1.34.1-.88.07s0,0,0,0c-5.7.42-11,.75-15.84,1-44.34,2.17-57.11-3-82.36-11.54C74.1,271.49,75.85,264.1,77.83,260.86c1.61-2.65,3.52-2.77,44,1.15,25.69,2.49,45.49-1.17,59.61-6,18-6.2,26.72-14.36,26.72-14.36s4.39,2.39,10.19,6.13C237.16,259.89,270.73,286.21,217.1,291Z"/><path class="cls-3" d="M265.35,279.7q-1.59,4.77-3.36,9.46s0,.06,0,.08a.88.88,0,0,1,0,.15q-1.94,5.17-4.08,10.26c-.16.4-.33.8-.49,1.19l-.78,1.81c-12.44,28.86-29,55.79-45.42,82.57-2.1,3.42-4.14,6.34-8,8a8,8,0,0,1-6.32.18c-6.64-3-2.26-16-.57-21,2.68-7.83,6.75-15.07,9.72-22.78a169.6,169.6,0,0,0,10.47-44c.33-3.27.55-6.56.66-9.84,0-.17,0-.34,0-.51v-.62c0-.34,0-.67,0-1h0c.09-3.89,0-7.79-.21-11.67,0-.19,0-.37,0-.51l0-.34a2.17,2.17,0,0,0,0-.24h0A127.59,127.59,0,0,0,207.1,239c-2.39-10.68,5.34-22.41,5.34-22.41l13.08-2.83,9.28-2,3.69-.8A29.54,29.54,0,0,0,260,219.48c7.42,0,10.36,7.86,10.36,7.86a36.12,36.12,0,0,1,2.44,11.24C273.53,252.49,269.7,266.64,265.35,279.7Z"/><path class="cls-2" d="M92.9,270.74l5,11.41L48.57,264.89V242.7l44.34,16.38s-14.06-1.82-15.86,5.67"/><path class="cls-5" d="M287.4,377.83c-2-2-4.72-6.44-.95-8.2,3.32-1.55,7.76-1,11.25-.62,14.7,1.54,29.07,8.3,41.85,15.4a67.7,67.7,0,0,1,16.28,12.45c2,2,7.11,6.7,5.75,10-1.1,2.7-6,2.09-8.17,1.88l2.79-4.39s-.1-8.62-31.34-23.4-36.33-7.38-36.33-7.38Z"/><path class="cls-3" d="M389.45,368.5c-3.28,2.6-6.48,5.33-9.57,8.18q-3.18,2.94-6.18,6.05h0c-.24.23-.48.49-.72.76a150.89,150.89,0,0,0-14,16.94c-1,1.36-1.91,2.73-2.82,4.13h0c-.95,1.42-1.86,2.86-2.75,4.32l-.05.08a143.58,143.58,0,0,0-16.58,39.24,133,133,0,0,0-4,25.18c-.71,12.38.48,24.64-1.37,37-1.47,9.79-6.18,28.91-19.1,17.89-8.2-7-12.53-19-16-29a185.92,185.92,0,0,1-6-20.3c-.52-2.1-1-4.22-1.41-6.34-4.29-20.67-6.68-42.05-5.92-63.19A137.92,137.92,0,0,1,287.4,378q.62-2.25,1.35-4.47.08-.27.18-.54c.15-.48.31-.95.48-1.43.33-.92.67-1.83,1-2.72a56.08,56.08,0,0,1,12.63-19.49,63.5,63.5,0,0,1,11.54-9c12.49-7.71,24.9-15.94,35.86-25.85,5.24-4.73,10.76-10.12,13.85-16.66.38-.81,3.43-11.36,0-11.42,1,0,5.16.08,14.62,3.95C389.94,294.93,451,319.7,389.45,368.5Z"/><path class="cls-1" d="M369.46,305.18c-4.19,12.23-43,42.62-71,55.1h0c-5-1.32-10.49-4.5-15.86-8.61a117.6,117.6,0,0,1-9-7.69c17.72-10,85.42-49.77,62.66-61.32,2.94.72,5.76,1.3,8.42,1.77a125.25,125.25,0,0,0,19.79,2.05H365a16.13,16.13,0,0,1,1.77.19h0a5.12,5.12,0,0,1,3.39,2.87h0A29.17,29.17,0,0,1,369.46,305.18Z"/><path class="cls-1" d="M320.94,284.17c-1.05,4.14-5,6.28-8.17,8.68-2.27,1.74-4.53,3.48-6.82,5.19-2.74,2-5.5,4.06-8.31,6-3.09,2.14-6.23,4.21-9.43,6.16s-6.69,3.92-10.17,5.65a90.22,90.22,0,0,1-10.52,4.47A57.31,57.31,0,0,1,257,323c-.82.12-1.64.21-2.47.28-3.86-4.77-4.78-6.12-4.78-6.12,3.31-6.36,6.56-14.1,9.27-20.47,19.27-7.93,45.76-20.95,39.21-31a92.35,92.35,0,0,0,9.91,6.28,105.12,105.12,0,0,0,10.54,5l1.41.57c1.12.45,1.11,2.81,1.13,3.79A10.66,10.66,0,0,1,320.94,284.17Z"/><path class="cls-1" d="M268.3,270.25l4.21-20.73c4.47-.37,5.08-5.82,5.08-5.82h0c.57.92,1.16,1.81,1.76,2.69a77,77,0,0,0,8.1,9.91C292.88,267.23,268.3,270.25,268.3,270.25Z"/><path class="cls-2" d="M216.15,291.1l-.08.14-3.37.24-7.25.52-.64.05-1.34.1-.46,0-.42,0s0,0,0,0c-.65.06-1.3.13-1.94.22a30.38,30.38,0,0,0-9.6,2.65c-2.43,1.34-3.47-.63-3.47-.63-.29-.42-.57-.84-.83-1.25-11.66-17.77-7.88-31.49-5.27-37.23.19-.43.38-.81.56-1.14a4.31,4.31,0,0,1,2.74-2.21,61,61,0,0,0,8.08-2.76,89.57,89.57,0,0,0,10.29-5.11c3.12-1.8,5-3.14,5-3.14s4.39,2.39,10.19,6.13C229.81,266.09,217.28,289.11,216.15,291.1Z"/><path class="cls-1" d="M200.62,292.44a30.38,30.38,0,0,0-9.6,2.65c-2.43,1.34-3.47-.63-3.47-.63-.29-.42-.57-.84-.83-1.25-11.66-17.77-7.88-31.49-5.27-37.23.19-.43.38-.81.56-1.14a4.31,4.31,0,0,1,2.74-2.21,61,61,0,0,0,8.08-2.76C190.76,256.36,187,274.28,200.62,292.44Z"/><path class="cls-1" d="M216.15,291.1l-.08.14-3.37.24C199.38,271,201.55,252,203.12,244.76c3.12-1.8,5-3.14,5-3.14s4.39,2.39,10.19,6.13C229.81,266.09,217.28,289.11,216.15,291.1Z"/><path class="cls-2" d="M272.64,248.16a104.84,104.84,0,0,1-2.9,16.72c-1.26,5.05-2.79,10-4.39,14.82-.42,1.27-.86,2.54-1.31,3.8-.66,1.9-1.34,3.78-2.05,5.66,0,0,0,.06,0,.08a.83.83,0,0,1,0,.15h0c-2.12,7.64-.66,8.48-1.25,11.4s-4,1.33-4,1.33l1.12-2.47a61.72,61.72,0,0,0-40.67-5l-.11,2.9s-3.46.64-3-2.83,2.9-6.08,2.86-13.85c-.06-.83-.12-1.65-.19-2.48a133.63,133.63,0,0,0-2.36-16.18,122.49,122.49,0,0,0-3.95-14.54q-1.47-4.36-3.3-8.63a17,17,0,0,1-.33-2,27.54,27.54,0,0,1,1.49-11.53,41.88,41.88,0,0,1,4.18-8.9l13.08-2.83,8-.94,1.25-1.07,3.69-.8a26.25,26.25,0,0,0,6,4.55,30,30,0,0,0,12.84,3.88h0q1.31.09,2.7.06c7.42,0,10.36,7.86,10.36,7.86a36.12,36.12,0,0,1,2.44,11.24A73,73,0,0,1,272.64,248.16Z"/><path class="cls-1" d="M264,283.5c-.66,1.9-1.34,3.78-2.05,5.66,0,0,0,.06,0,.08a.83.83,0,0,1,0,.15h0c-2.12,7.64-.66,8.48-1.25,11.4s-4,1.33-4,1.33l1.12-2.47a61.72,61.72,0,0,0-40.67-5l-.11,2.9s-3.46.64-3-2.83,2.9-6.08,2.86-13.85c-.06-.83-.12-1.65-.19-2.48C226.09,274.85,243,271.91,264,283.5Z"/><path class="cls-1" d="M272.64,248.16a104.84,104.84,0,0,1-2.9,16.72c-28-12.49-46.73-7-55.39-2.67a122.49,122.49,0,0,0-3.95-14.54C238.07,233.71,264.13,244,272.64,248.16Z"/><path class="cls-1" d="M257.3,219.42c-22.19,15.91-40.15,18.18-50.53,17.64a27.54,27.54,0,0,1,1.49-11.53c18.67-.53,30.55-6.36,36.2-10A30,30,0,0,0,257.3,219.42Z"/><ellipse class="cls-3" cx="219.3" cy="189.2" rx="33.6" ry="38.24"/><path class="cls-2" d="M215.85,151s25,12,12.84,26.45,15.77,38.14,15.77,38.14,23.45-12.08,23.21-17.61S263,178,263,178l-9.22-13.15-13.92-13.23-16.47-2Z"/><path class="cls-5" d="M361.69,406.78l-.11.32c-1.1,2.7-6,2.09-8.18,1.88l2.8-4.39h0c0-.39-.82-8.95-31.35-23.38-25.14-11.89-33.34-9.43-35.59-8a2.66,2.66,0,0,0-.74.63L287.4,378c-1.61-1.62-3.68-4.8-2.47-6.89a3.18,3.18,0,0,1,1.52-1.31c3.31-1.55,7.75-1,11.24-.62,14.7,1.55,29.08,8.3,41.86,15.4a68,68,0,0,1,16.28,12.45C357.73,399,362.62,403.49,361.69,406.78Z"/><path class="cls-5" d="M427.18,357.52c-.07-1.27-.07-2.56-.24-3.82,0-.33-.09-.65-.16-1-.36-1.69-1.08-2.26-2.77-2.64a16.06,16.06,0,0,1-3.4-1.3c-1-.5-1.84-1-2-1.08h0a76.93,76.93,0,0,1-7.83-7.37l-2.61-.94-16.36,7.42L366.15,368.6,359,400.91c6,4.26,14.9,9,27.41,12.45h0l.19.05c.64.18,1.29.35,2,.52l.08,0c.69.2,1.35.42,2,.65a24.75,24.75,0,0,1,7.69,4.09,3.69,3.69,0,0,0,3.7,1.05,8.49,8.49,0,0,0,2.74-2.67l.3-.34q3.06-3.45,5.8-7.18a90.36,90.36,0,0,0,9.34-15.88c.59-1.29,1.14-2.59,1.66-3.91a78.51,78.51,0,0,0,5.4-24.47A67.48,67.48,0,0,0,427.18,357.52Z"/><path class="cls-5" d="M373.69,382.74c-5.71,5.59-11.18,21.58-12,24l-.11.32-5.38-2.52c0-.39-.82-8.95-31.35-23.38-25.14-11.89-33.34-9.43-35.59-8l-4.33-2c5.73-11.21,18.13-21.76,18.13-21.76l64.85,14S379.88,376.68,373.69,382.74Z"/><path class="cls-5" d="M389.45,368.5c-3.28,2.6-6.48,5.33-9.57,8.18q-3.18,2.94-6.18,6.05h0l-57.1-27-13.53-6.39a63.5,63.5,0,0,1,11.54-9c12.49-7.71,24.9-15.94,35.86-25.85,5.24-4.73,10.76-10.12,13.85-16.66.38-.8,3.34-11.09.13-11.41h-.13c.14,0,.35,0,.63,0H365a16.13,16.13,0,0,1,1.77.19h0a55.35,55.35,0,0,1,12.16,3.74C389.94,294.93,451,319.7,389.45,368.5Z"/></g></g></svg>