<svg xmlns="http://www.w3.org/2000/svg" viewBox="0 0 500 500"><defs><style>.cls-1{fill:#231f20;}.cls-2{fill:none;}</style></defs><g id="Layer_2" data-name="Layer 2"><g id="Layer_1-2" data-name="Layer 1"><path class="cls-1" d="M468.21,132.56A154.83,154.83,0,0,0,181.88,75.72L52.76,293C16.15,354.64,33.61,434.88,92.51,475.72a137.5,137.5,0,0,0,185-26.86L435.74,251.72A155.32,155.32,0,0,0,468.21,132.56ZM219.92,98.32a109.48,109.48,0,0,1,71.56-51.57,112.33,112.33,0,0,1,23.87-2.59,108.58,108.58,0,0,1,46.58,10.53c-1.29,2-2.79,4.35-4.53,6.93s-3.68,5.2-5.66,8.12C324,108.35,260,180.74,160.68,198ZM243,421.16a93.15,93.15,0,0,1-125.31,18.2h0A93.16,93.16,0,0,1,90.8,315.63L133.94,243c68.31-4.84,123.4-31.91,165.46-63.7-14.81,49.84-20.83,109.93-2.37,174.56ZM401.24,224l-71.33,88.87c-17-94.91,23.95-176,50.59-216.64C384.56,90.7,388,85.62,391,81.18c1-1.42,2-2.69,2.92-3.88A110.62,110.62,0,0,1,401.24,224Z"/><rect class="cls-2" width="500" height="500"/></g></g></svg>