<svg xmlns="http://www.w3.org/2000/svg" viewBox="0 0 500 500"><defs><style>.cls-1{fill:#231f20;}.cls-2{fill:none;}</style></defs><g id="Layer_2" data-name="Layer 2"><g id="Layer_1-2" data-name="Layer 1"><path class="cls-1" d="M246.85,500A21.78,21.78,0,0,1,230,492.05c-32.23-39.12-78.54-96.84-116.14-149.64a303.58,303.58,0,0,1-27.44-45.77C75.53,274.08,59,240,58.69,193.55,58.39,154.48,68.12,119,87.62,88c30.14-47.87,73.3-68.86,96.34-77.1A195.63,195.63,0,0,1,366.49,39.67c22.87,17.46,53.12,48.35,67.34,96.39h0c14.3,48.3,4.46,88.15.26,105.18-5.66,22.89-13.35,37.62-27.32,64.35-24.48,46.81-51,80.88-70.4,105.76l-3,3.75c-4.89,6.11-19,23.74-61.26,76.59a21.82,21.82,0,0,1-16.74,8.19l-8.19.12Zm1.48-456.37A149.44,149.44,0,0,0,198.67,52c-17.75,6.35-51,22.49-74.13,59.27-22.57,35.84-22.3,70.55-22.21,82,.27,36.6,13.63,64.24,23.39,84.43a259.34,259.34,0,0,0,23.7,39.45c32.11,45.09,70.87,94,101.34,131.42,32.48-40.61,44.18-55.24,48.55-60.69,2.37-2.95,2.43-3,2.64-3.3,18.35-23.56,43.5-55.84,66.06-99,13.29-25.45,19.32-37,23.72-54.79,3.63-14.72,11.2-45.37.26-82.33-10.88-36.74-34.27-60.56-52-74.08a152.19,152.19,0,0,0-91.68-30.73Zm5.37,232.9A94.26,94.26,0,1,1,348,182.26,94,94,0,0,1,253.7,276.53Zm.07-144.9a54.87,54.87,0,0,0-10.44,1,50.07,50.07,0,0,0-39.25,39.25c-3,15.54.72,30.64,10.53,42.54a50.63,50.63,0,1,0,71.26-71.27A50,50,0,0,0,253.77,131.63Z"/><rect class="cls-2" width="500" height="500"/></g></g></svg>