<svg xmlns="http://www.w3.org/2000/svg" viewBox="0 0 500 500"><defs><style>.cls-1{fill:#231f20;}</style></defs><g id="Layer_2" data-name="Layer 2"><g id="Layer_1-2" data-name="Layer 1"><path class="cls-1" d="M250,500C112.15,500,0,387.85,0,250S112.15,0,250,0,500,112.15,500,250,387.85,500,250,500Zm0-456.08C136.37,43.92,43.92,136.37,43.92,250S136.37,456.08,250,456.08,456.08,363.63,456.08,250,363.63,43.92,250,43.92Z"/><path class="cls-1" d="M274.8,226.21H272V149.73h2.84a36.12,36.12,0,0,1,36.08,36.08,23.8,23.8,0,0,0,47.59,0,83.76,83.76,0,0,0-83.67-83.66H272V90.46a22,22,0,1,0-43.92,0v11.69H225.2a83.76,83.76,0,0,0-83.67,83.66v4.32a83.76,83.76,0,0,0,83.67,83.66H228v76.48H225.2a36.12,36.12,0,0,1-36.08-36.08v-4.32a23.8,23.8,0,0,0-47.59,0v4.32a83.76,83.76,0,0,0,83.67,83.66H228v11.69a22,22,0,1,0,43.92,0V397.85h2.84a83.76,83.76,0,0,0,83.67-83.66v-4.32A83.76,83.76,0,0,0,274.8,226.21Zm-49.6,0a36.12,36.12,0,0,1-36.08-36.08v-4.32a36.12,36.12,0,0,1,36.08-36.08H228v76.48Zm85.68,88a36.12,36.12,0,0,1-36.08,36.08H272V273.79h2.84a36.12,36.12,0,0,1,36.08,36.08Z"/></g></g></svg>